{
	"patcher" : 	{
		"fileversion" : 1,
		"appversion" : 		{
			"major" : 8,
			"minor" : 5,
			"revision" : 6,
			"architecture" : "x64",
			"modernui" : 1
		}
,
		"classnamespace" : "box",
		"rect" : [ 1315.0, 85.0, 910.0, 1280.0 ],
		"bglocked" : 0,
		"openinpresentation" : 0,
		"default_fontsize" : 11.0,
		"default_fontface" : 0,
		"default_fontname" : "JetBrainsMono Nerd Font Medium",
		"gridonopen" : 1,
		"gridsize" : [ 15.0, 15.0 ],
		"gridsnaponopen" : 1,
		"objectsnaponopen" : 1,
		"statusbarvisible" : 2,
		"toolbarvisible" : 1,
		"lefttoolbarpinned" : 0,
		"toptoolbarpinned" : 0,
		"righttoolbarpinned" : 0,
		"bottomtoolbarpinned" : 0,
		"toolbars_unpinned_last_save" : 0,
		"tallnewobj" : 0,
		"boxanimatetime" : 50,
		"enablehscroll" : 1,
		"enablevscroll" : 1,
		"devicewidth" : 0.0,
		"description" : "",
		"digest" : "",
		"tags" : "",
		"style" : "",
		"subpatcher_template" : "darkMode",
		"assistshowspatchername" : 0,
		"boxes" : [ 			{
				"box" : 				{
					"id" : "obj-115",
					"maxclass" : "live.dial",
					"numinlets" : 1,
					"numoutlets" : 2,
					"outlettype" : [ "", "float" ],
					"parameter_enable" : 1,
					"patching_rect" : [ 281.672611176967621, 252.293041253089882, 41.0, 48.0 ],
					"saved_attribute_attributes" : 					{
						"textcolor" : 						{
							"expression" : ""
						}
,
						"valueof" : 						{
							"parameter_longname" : "live.dial[3]",
							"parameter_mmax" : 1.0,
							"parameter_shortname" : "lforange",
							"parameter_type" : 0,
							"parameter_unitstyle" : 1
						}

					}
,
					"textcolor" : [ 1.0, 1.0, 1.0, 1.0 ],
					"varname" : "live.dial[3]"
				}

			}
, 			{
				"box" : 				{
					"id" : "obj-114",
					"maxclass" : "live.dial",
					"numinlets" : 1,
					"numoutlets" : 2,
					"outlettype" : [ "", "float" ],
					"parameter_enable" : 1,
					"patching_rect" : [ 305.170059645175911, 387.052699053287483, 41.0, 48.0 ],
					"saved_attribute_attributes" : 					{
						"textcolor" : 						{
							"expression" : ""
						}
,
						"valueof" : 						{
							"parameter_longname" : "live.dial[2]",
							"parameter_mmax" : 1.0,
							"parameter_shortname" : "size",
							"parameter_type" : 0,
							"parameter_unitstyle" : 1
						}

					}
,
					"textcolor" : [ 1.0, 1.0, 1.0, 1.0 ],
					"varname" : "live.dial[2]"
				}

			}
, 			{
				"box" : 				{
					"id" : "obj-113",
					"maxclass" : "live.dial",
					"numinlets" : 1,
					"numoutlets" : 2,
					"outlettype" : [ "", "float" ],
					"parameter_enable" : 1,
					"patching_rect" : [ 51.115707099437714, 367.604113876819611, 41.0, 48.0 ],
					"saved_attribute_attributes" : 					{
						"textcolor" : 						{
							"expression" : ""
						}
,
						"valueof" : 						{
							"parameter_longname" : "live.dial[1]",
							"parameter_mmax" : 1.0,
							"parameter_shortname" : "noise",
							"parameter_type" : 0,
							"parameter_unitstyle" : 1
						}

					}
,
					"textcolor" : [ 1.0, 1.0, 1.0, 1.0 ],
					"varname" : "live.dial[1]"
				}

			}
, 			{
				"box" : 				{
					"id" : "obj-112",
					"maxclass" : "live.dial",
					"numinlets" : 1,
					"numoutlets" : 2,
					"outlettype" : [ "", "float" ],
					"parameter_enable" : 1,
					"patching_rect" : [ 120.689653992652879, 206.091084444522835, 41.0, 48.0 ],
					"saved_attribute_attributes" : 					{
						"textcolor" : 						{
							"expression" : ""
						}
,
						"valueof" : 						{
							"parameter_longname" : "live.dial",
							"parameter_mmax" : 1.0,
							"parameter_shortname" : "lfospd",
							"parameter_type" : 0,
							"parameter_unitstyle" : 1
						}

					}
,
					"textcolor" : [ 1.0, 1.0, 1.0, 1.0 ],
					"varname" : "live.dial"
				}

			}
, 			{
				"box" : 				{
					"fontface" : 0,
					"fontname" : "JetBrainsMono Nerd Font Medium",
					"fontsize" : 11.0,
					"id" : "obj-111",
					"maxclass" : "number~",
					"mode" : 2,
					"numinlets" : 2,
					"numoutlets" : 2,
					"outlettype" : [ "signal", "float" ],
					"patching_rect" : [ 578.759999999999991, 502.649999999999977, 125.911495923995972, 23.0 ],
					"sig" : 0.0
				}

			}
, 			{
				"box" : 				{
					"id" : "obj-110",
					"maxclass" : "button",
					"numinlets" : 1,
					"numoutlets" : 1,
					"outlettype" : [ "bang" ],
					"parameter_enable" : 0,
					"patching_rect" : [ 637.433136463165283, 811.229922831058502, 24.0, 24.0 ]
				}

			}
, 			{
				"box" : 				{
					"id" : "obj-108",
					"maxclass" : "newobj",
					"numinlets" : 2,
					"numoutlets" : 1,
					"outlettype" : [ "int" ],
					"patching_rect" : [ 632.620000000000005, 878.610000000000014, 29.5, 23.0 ],
					"text" : "0"
				}

			}
, 			{
				"box" : 				{
					"id" : "obj-107",
					"maxclass" : "newobj",
					"numinlets" : 6,
					"numoutlets" : 1,
					"outlettype" : [ "" ],
					"patching_rect" : [ 518.082324287891311, 722.81265323638911, 127.0, 23.0 ],
					"text" : "scale 0. 1. -1. 1."
				}

			}
, 			{
				"box" : 				{
					"format" : 6,
					"id" : "obj-106",
					"maxclass" : "flonum",
					"numinlets" : 1,
					"numoutlets" : 2,
					"outlettype" : [ "", "bang" ],
					"parameter_enable" : 0,
					"patching_rect" : [ 293.954892549514852, 741.17999999999995, 50.0, 23.0 ]
				}

			}
, 			{
				"box" : 				{
					"bgcolor" : [ 0.149019607843137, 0.141176470588235, 0.141176470588235, 0.0 ],
					"id" : "obj-103",
					"ignoreclick" : 1,
					"maxclass" : "multislider",
					"numinlets" : 1,
					"numoutlets" : 2,
					"orientation" : 0,
					"outlettype" : [ "", "" ],
					"parameter_enable" : 0,
					"patching_rect" : [ 475.446316165924145, 1030.417377836704418, 335.0, 68.0 ],
					"slidercolor" : [ 0.513725490196078, 1.0, 0.556862745098039, 1.0 ]
				}

			}
, 			{
				"box" : 				{
					"id" : "obj-95",
					"maxclass" : "newobj",
					"numinlets" : 0,
					"numoutlets" : 1,
					"outlettype" : [ "" ],
					"patching_rect" : [ 856.71524395704273, 853.006726174354526, 74.0, 23.0 ],
					"text" : "r lforange"
				}

			}
, 			{
				"box" : 				{
					"id" : "obj-94",
					"maxclass" : "newobj",
					"numinlets" : 1,
					"numoutlets" : 0,
					"patching_rect" : [ 365.791052694320683, 312.81508473157885, 94.0, 23.0 ],
					"text" : "send lforange"
				}

			}
, 			{
				"box" : 				{
					"format" : 6,
					"id" : "obj-93",
					"maxclass" : "flonum",
					"numinlets" : 1,
					"numoutlets" : 2,
					"outlettype" : [ "", "bang" ],
					"parameter_enable" : 0,
					"patching_rect" : [ 842.399454734325445, 939.068482580184991, 102.63157844543457, 23.0 ]
				}

			}
, 			{
				"box" : 				{
					"id" : "obj-78",
					"maxclass" : "newobj",
					"numinlets" : 2,
					"numoutlets" : 1,
					"outlettype" : [ "float" ],
					"patching_rect" : [ 759.504718682765997, 763.8178947305679, 73.614211730957095, 23.0 ],
					"text" : "* 1."
				}

			}
, 			{
				"box" : 				{
					"id" : "obj-77",
					"maxclass" : "newobj",
					"numinlets" : 0,
					"numoutlets" : 1,
					"outlettype" : [ "" ],
					"patching_rect" : [ 814.118930413723092, 688.158947305679362, 61.0, 23.0 ],
					"text" : "r sizeMS"
				}

			}
, 			{
				"box" : 				{
					"id" : "obj-76",
					"maxclass" : "newobj",
					"numinlets" : 1,
					"numoutlets" : 0,
					"patching_rect" : [ 983.5536834764481, 232.320739395618489, 61.0, 23.0 ],
					"text" : "s sizeMS"
				}

			}
, 			{
				"box" : 				{
					"id" : "obj-74",
					"maxclass" : "newobj",
					"numinlets" : 0,
					"numoutlets" : 1,
					"outlettype" : [ "" ],
					"patching_rect" : [ 759.504718682765997, 688.158947305679362, 48.0, 23.0 ],
					"text" : "r size"
				}

			}
, 			{
				"box" : 				{
					"id" : "obj-73",
					"maxclass" : "newobj",
					"numinlets" : 1,
					"numoutlets" : 0,
					"patching_rect" : [ 376.189861674308759, 447.301139652729034, 68.0, 23.0 ],
					"text" : "send size"
				}

			}
, 			{
				"box" : 				{
					"id" : "obj-44",
					"maxclass" : "newobj",
					"numinlets" : 2,
					"numoutlets" : 2,
					"outlettype" : [ "", "" ],
					"patching_rect" : [ 324.942943360805543, 621.715263352394118, 107.0, 23.0 ],
					"text" : "mc.snapshot~ 50"
				}

			}
, 			{
				"box" : 				{
					"id" : "obj-43",
					"maxclass" : "newobj",
					"numinlets" : 1,
					"numoutlets" : 1,
					"outlettype" : [ "multichannelsignal" ],
					"patching_rect" : [ 324.942943360805543, 584.215263710021986, 140.0, 23.0 ],
					"text" : "mc.average~ @chans 1"
				}

			}
, 			{
				"box" : 				{
					"id" : "obj-5",
					"maxclass" : "live.scope~",
					"numinlets" : 2,
					"numoutlets" : 1,
					"outlettype" : [ "bang" ],
					"patching_rect" : [ 489.582324287891424, 576.715263352394118, 184.0, 68.0 ]
				}

			}
, 			{
				"box" : 				{
					"id" : "obj-2",
					"maxclass" : "newobj",
					"numinlets" : 1,
					"numoutlets" : 1,
					"outlettype" : [ "bang" ],
					"patching_rect" : [ 221.748660743236542, 38.815262994766236, 61.0, 23.0 ],
					"text" : "loadbang"
				}

			}
, 			{
				"box" : 				{
					"id" : "obj-27",
					"maxclass" : "newobj",
					"numinlets" : 6,
					"numoutlets" : 1,
					"outlettype" : [ "multichannelsignal" ],
					"patching_rect" : [ 291.39591679811474, 907.78844851970689, 127.0, 23.0 ],
					"text" : "mc.scale~ -1 1 0 1"
				}

			}
, 			{
				"box" : 				{
					"id" : "obj-22",
					"maxclass" : "newobj",
					"numinlets" : 1,
					"numoutlets" : 1,
					"outlettype" : [ "multichannelsignal" ],
					"patching_rect" : [ 291.39591679811474, 862.788448519706776, 147.0, 23.0 ],
					"text" : "mc.rand~ 10 @chans 32"
				}

			}
, 			{
				"box" : 				{
					"id" : "obj-19",
					"maxclass" : "newobj",
					"numinlets" : 1,
					"numoutlets" : 0,
					"patching_rect" : [ 205.138656113147761, 1192.797057142257927, 55.0, 23.0 ],
					"text" : "mc.dac~"
				}

			}
, 			{
				"box" : 				{
					"id" : "obj-15",
					"maxclass" : "gain~",
					"multichannelvariant" : 1,
					"numinlets" : 1,
					"numoutlets" : 2,
					"outlettype" : [ "multichannelsignal", "" ],
					"parameter_enable" : 0,
					"patching_rect" : [ 205.138656113147761, 1030.417377836704418, 112.588239073753357, 137.05882340669632 ]
				}

			}
, 			{
				"box" : 				{
					"id" : "obj-3",
					"maxclass" : "newobj",
					"numinlets" : 2,
					"numoutlets" : 1,
					"outlettype" : [ "multichannelsignal" ],
					"patching_rect" : [ 151.08987158536911, 948.189499320983941, 160.0, 23.0 ],
					"text" : "mc.mixdown~ @autogain 1"
				}

			}
, 			{
				"box" : 				{
					"id" : "obj-69",
					"maxclass" : "newobj",
					"numinlets" : 1,
					"numoutlets" : 1,
					"outlettype" : [ "" ],
					"patching_rect" : [ 120.689653992652879, 176.972343652248384, 94.0, 23.0 ],
					"text" : "loadmess 0.15"
				}

			}
, 			{
				"box" : 				{
					"id" : "obj-71",
					"maxclass" : "message",
					"numinlets" : 2,
					"numoutlets" : 1,
					"outlettype" : [ "" ],
					"patching_rect" : [ 120.689653992652893, 273.636578583717323, 81.0, 23.0 ],
					"text" : "lfospeed $1"
				}

			}
, 			{
				"box" : 				{
					"id" : "obj-64",
					"maxclass" : "newobj",
					"numinlets" : 1,
					"numoutlets" : 1,
					"outlettype" : [ "" ],
					"patching_rect" : [ 51.115707099437714, 331.028710806369759, 88.0, 23.0 ],
					"text" : "loadmess 0.1"
				}

			}
, 			{
				"box" : 				{
					"id" : "obj-62",
					"maxclass" : "message",
					"numinlets" : 2,
					"numoutlets" : 1,
					"outlettype" : [ "" ],
					"patching_rect" : [ 51.115707099437714, 429.614064991474152, 81.0, 23.0 ],
					"text" : "noiseamt $1"
				}

			}
, 			{
				"box" : 				{
					"id" : "obj-57",
					"maxclass" : "message",
					"numinlets" : 2,
					"numoutlets" : 1,
					"outlettype" : [ "" ],
					"patching_rect" : [ 858.070505521297491, 232.320739395618489, 117.320261985063553, 23.0 ],
					"text" : "2821.746032"
				}

			}
, 			{
				"box" : 				{
					"id" : "obj-56",
					"maxclass" : "message",
					"numinlets" : 2,
					"numoutlets" : 1,
					"outlettype" : [ "" ],
					"patching_rect" : [ 851.279656044244803, 195.796089413166101, 61.111111462116241, 23.0 ],
					"text" : "44100."
				}

			}
, 			{
				"box" : 				{
					"id" : "obj-54",
					"maxclass" : "newobj",
					"numinlets" : 1,
					"numoutlets" : 1,
					"outlettype" : [ "bang" ],
					"patching_rect" : [ 893.390767506361044, 58.227038681507111, 61.0, 23.0 ],
					"text" : "loadbang"
				}

			}
, 			{
				"box" : 				{
					"id" : "obj-50",
					"maxclass" : "button",
					"numinlets" : 1,
					"numoutlets" : 1,
					"outlettype" : [ "bang" ],
					"parameter_enable" : 0,
					"patching_rect" : [ 893.390767506361044, 87.067671666145316, 24.0, 24.0 ]
				}

			}
, 			{
				"box" : 				{
					"id" : "obj-49",
					"maxclass" : "newobj",
					"numinlets" : 1,
					"numoutlets" : 9,
					"outlettype" : [ "float", "list", "float", "float", "float", "float", "float", "", "int" ],
					"patching_rect" : [ 893.390767506361044, 118.852834343910217, 103.0, 23.0 ],
					"text" : "info~ alex"
				}

			}
, 			{
				"box" : 				{
					"id" : "obj-47",
					"maxclass" : "newobj",
					"numinlets" : 1,
					"numoutlets" : 1,
					"outlettype" : [ "" ],
					"patching_rect" : [ 699.118930413723092, 170.357769219875337, 134.0, 23.0 ],
					"text" : "loadmess jongly.aif"
				}

			}
, 			{
				"box" : 				{
					"id" : "obj-46",
					"maxclass" : "newobj",
					"numinlets" : 1,
					"numoutlets" : 1,
					"outlettype" : [ "" ],
					"patching_rect" : [ 281.672611176967621, 223.608091318607308, 81.0, 23.0 ],
					"text" : "loadmess 1."
				}

			}
, 			{
				"box" : 				{
					"id" : "obj-45",
					"maxclass" : "newobj",
					"numinlets" : 1,
					"numoutlets" : 1,
					"outlettype" : [ "" ],
					"patching_rect" : [ 305.170059645175911, 357.290794336795784, 88.0, 23.0 ],
					"text" : "loadmess 0.4"
				}

			}
, 			{
				"box" : 				{
					"id" : "obj-39",
					"maxclass" : "button",
					"numinlets" : 1,
					"numoutlets" : 1,
					"outlettype" : [ "bang" ],
					"parameter_enable" : 0,
					"patching_rect" : [ 553.598888537883795, 87.067671666145316, 24.0, 24.0 ]
				}

			}
, 			{
				"box" : 				{
					"buffername" : "alex",
					"id" : "obj-35",
					"maxclass" : "waveform~",
					"numinlets" : 5,
					"numoutlets" : 6,
					"outlettype" : [ "float", "float", "float", "float", "list", "" ],
					"patching_rect" : [ 475.446316165924145, 1030.441016548872085, 334.947367668151855, 67.947368383407593 ]
				}

			}
, 			{
				"box" : 				{
					"id" : "obj-33",
					"maxclass" : "newobj",
					"numinlets" : 1,
					"numoutlets" : 1,
					"outlettype" : [ "" ],
					"patching_rect" : [ 553.598888537883795, 206.091084444522835, 88.0, 23.0 ],
					"text" : "prepend read"
				}

			}
, 			{
				"box" : 				{
					"decodemode" : 1,
					"id" : "obj-32",
					"maxclass" : "live.drop",
					"numinlets" : 1,
					"numoutlets" : 2,
					"outlettype" : [ "", "" ],
					"parameter_enable" : 1,
					"patching_rect" : [ 553.598888537883795, 126.575518279075624, 140.0, 60.0 ],
					"saved_attribute_attributes" : 					{
						"valueof" : 						{
							"parameter_invisible" : 1,
							"parameter_longname" : "live.drop",
							"parameter_shortname" : "live.drop",
							"parameter_type" : 4
						}

					}
,
					"varname" : "live.drop"
				}

			}
, 			{
				"box" : 				{
					"id" : "obj-30",
					"maxclass" : "newobj",
					"numinlets" : 1,
					"numoutlets" : 2,
					"outlettype" : [ "float", "bang" ],
					"patching_rect" : [ 553.598888537883795, 238.119201242923737, 88.0, 23.0 ],
					"text" : "buffer~ alex"
				}

			}
, 			{
				"box" : 				{
					"id" : "obj-21",
					"maxclass" : "message",
					"numinlets" : 2,
					"numoutlets" : 1,
					"outlettype" : [ "" ],
					"patching_rect" : [ 305.170059645175911, 447.301139652729034, 55.0, 23.0 ],
					"text" : "size $1"
				}

			}
, 			{
				"box" : 				{
					"id" : "obj-20",
					"maxclass" : "message",
					"numinlets" : 2,
					"numoutlets" : 1,
					"outlettype" : [ "" ],
					"patching_rect" : [ 278.271250665187836, 312.81508473157885, 81.0, 23.0 ],
					"text" : "lforange $1"
				}

			}
, 			{
				"box" : 				{
					"id" : "obj-17",
					"maxclass" : "newobj",
					"numinlets" : 1,
					"numoutlets" : 1,
					"outlettype" : [ "" ],
					"patching_rect" : [ 389.638454258441925, 126.575518279075624, 81.0, 23.0 ],
					"text" : "loadmess 40"
				}

			}
, 			{
				"box" : 				{
					"id" : "obj-16",
					"maxclass" : "number",
					"minimum" : 0,
					"numinlets" : 1,
					"numoutlets" : 2,
					"outlettype" : [ "", "bang" ],
					"parameter_enable" : 0,
					"patching_rect" : [ 351.97632971525195, 162.686629502773286, 50.0, 23.0 ]
				}

			}
, 			{
				"box" : 				{
					"id" : "obj-14",
					"maxclass" : "newobj",
					"numinlets" : 2,
					"numoutlets" : 1,
					"outlettype" : [ "int" ],
					"patching_rect" : [ 305.170059645175911, 181.40320649623871, 41.0, 23.0 ],
					"text" : "+ 100"
				}

			}
, 			{
				"box" : 				{
					"id" : "obj-13",
					"maxclass" : "newobj",
					"numinlets" : 2,
					"numoutlets" : 1,
					"outlettype" : [ "int" ],
					"patching_rect" : [ 305.170059645175911, 126.575518279075624, 74.0, 23.0 ],
					"text" : "random 200"
				}

			}
, 			{
				"box" : 				{
					"id" : "obj-12",
					"maxclass" : "toggle",
					"numinlets" : 1,
					"numoutlets" : 1,
					"outlettype" : [ "int" ],
					"parameter_enable" : 0,
					"patching_rect" : [ 221.748660743236542, 66.70088404417038, 24.0, 24.0 ]
				}

			}
, 			{
				"box" : 				{
					"id" : "obj-8",
					"maxclass" : "live.scope~",
					"numinlets" : 2,
					"numoutlets" : 1,
					"outlettype" : [ "bang" ],
					"patching_rect" : [ 78.853053480386734, 1221.115637769699333, 184.0, 68.0 ]
				}

			}
, 			{
				"box" : 				{
					"id" : "obj-6",
					"maxclass" : "newobj",
					"numinlets" : 2,
					"numoutlets" : 1,
					"outlettype" : [ "bang" ],
					"patching_rect" : [ 221.748660743236542, 103.361119825839992, 68.0, 23.0 ],
					"text" : "metro 300"
				}

			}
, 			{
				"box" : 				{
					"data" : 					{
						"patcher" : 						{
							"fileversion" : 1,
							"appversion" : 							{
								"major" : 8,
								"minor" : 5,
								"revision" : 6,
								"architecture" : "x64",
								"modernui" : 1
							}
,
							"classnamespace" : "dsp.gen",
							"rect" : [ 35.0, 85.0, 921.0, 1280.0 ],
							"bglocked" : 0,
							"openinpresentation" : 0,
							"default_fontsize" : 12.0,
							"default_fontface" : 0,
							"default_fontname" : "Arial",
							"gridonopen" : 1,
							"gridsize" : [ 15.0, 15.0 ],
							"gridsnaponopen" : 1,
							"objectsnaponopen" : 1,
							"statusbarvisible" : 2,
							"toolbarvisible" : 1,
							"lefttoolbarpinned" : 0,
							"toptoolbarpinned" : 0,
							"righttoolbarpinned" : 0,
							"bottomtoolbarpinned" : 0,
							"toolbars_unpinned_last_save" : 0,
							"tallnewobj" : 0,
							"boxanimatetime" : 50,
							"enablehscroll" : 1,
							"enablevscroll" : 1,
							"devicewidth" : 0.0,
							"description" : "",
							"digest" : "",
							"tags" : "",
							"style" : "",
							"subpatcher_template" : "darkMode",
							"assistshowspatchername" : 0,
							"boxes" : [ 								{
									"box" : 									{
										"maxclass" : "newobj",
										"text" : "in 1",
										"patching_rect" : [ 383.871685475111008, 292.890709359645825, 28.0, 22.0 ],
										"numinlets" : 0,
										"numoutlets" : 1,
										"outlettype" : [ "" ],
										"id" : "obj-7"
									}

								}
, 								{
									"box" : 									{
										"maxclass" : "newobj",
										"text" : "latch",
										"patching_rect" : [ 325.734399565458318, 360.501520025730144, 77.137285909652689, 22.0 ],
										"numinlets" : 2,
										"numoutlets" : 1,
										"outlettype" : [ "" ],
										"id" : "obj-6"
									}

								}
, 								{
									"box" : 									{
										"maxclass" : "newobj",
										"text" : "in 1",
										"patching_rect" : [ 224.272955514192631, 244.757641967535051, 28.0, 22.0 ],
										"numinlets" : 0,
										"numoutlets" : 1,
										"outlettype" : [ "" ],
										"id" : "obj-3"
									}

								}
, 								{
									"box" : 									{
										"maxclass" : "newobj",
										"text" : "latch",
										"patching_rect" : [ 209.272955514192631, 333.092355213165263, 34.0, 22.0 ],
										"numinlets" : 2,
										"numoutlets" : 1,
										"outlettype" : [ "" ],
										"id" : "obj-2"
									}

								}
, 								{
									"box" : 									{
										"maxclass" : "newobj",
										"text" : "param start 0",
										"patching_rect" : [ 521.552592524290048, 704.967458236217453, 79.0, 22.0 ],
										"numinlets" : 0,
										"numoutlets" : 1,
										"outlettype" : [ "" ],
										"id" : "obj-1"
									}

								}
, 								{
									"box" : 									{
										"maxclass" : "newobj",
										"text" : "param lfospeed 0.5",
										"patching_rect" : [ 521.552592524290048, 651.677985060214951, 111.0, 22.0 ],
										"numinlets" : 0,
										"numoutlets" : 1,
										"outlettype" : [ "" ],
										"id" : "obj-49"
									}

								}
, 								{
									"box" : 									{
										"maxclass" : "newobj",
										"text" : "param lfospeed",
										"patching_rect" : [ 325.734399565458318, 171.84914110898967, 91.0, 22.0 ],
										"numinlets" : 0,
										"numoutlets" : 1,
										"outlettype" : [ "" ],
										"id" : "obj-48"
									}

								}
, 								{
									"box" : 									{
										"maxclass" : "newobj",
										"text" : "wrap 0 1",
										"patching_rect" : [ 189.390602208375981, 549.581174030303941, 55.0, 22.0 ],
										"numinlets" : 1,
										"numoutlets" : 1,
										"outlettype" : [ "" ],
										"id" : "obj-47"
									}

								}
, 								{
									"box" : 									{
										"maxclass" : "newobj",
										"text" : "scale -1 1 start start+lforange",
										"patching_rect" : [ 325.734399565458318, 244.757641967535051, 164.0, 22.0 ],
										"numinlets" : 2,
										"numoutlets" : 1,
										"outlettype" : [ "" ],
										"id" : "obj-46"
									}

								}
, 								{
									"box" : 									{
										"maxclass" : "newobj",
										"text" : "+ size",
										"patching_rect" : [ 325.734399565458318, 293.091590523719788, 40.0, 22.0 ],
										"numinlets" : 1,
										"numoutlets" : 1,
										"outlettype" : [ "" ],
										"id" : "obj-45"
									}

								}
, 								{
									"box" : 									{
										"maxclass" : "newobj",
										"text" : "cycle",
										"patching_rect" : [ 325.734399565458318, 204.796091595888242, 36.0, 22.0 ],
										"numinlets" : 1,
										"numoutlets" : 2,
										"outlettype" : [ "", "" ],
										"id" : "obj-44"
									}

								}
, 								{
									"box" : 									{
										"maxclass" : "newobj",
										"text" : "param noiseamt 1",
										"patching_rect" : [ 521.552592524290048, 532.379744637012436, 105.0, 22.0 ],
										"numinlets" : 0,
										"numoutlets" : 1,
										"outlettype" : [ "" ],
										"id" : "obj-43"
									}

								}
, 								{
									"box" : 									{
										"maxclass" : "newobj",
										"text" : "phasor",
										"patching_rect" : [ 34.286024413108848, 133.922340790033417, 45.0, 22.0 ],
										"numinlets" : 2,
										"numoutlets" : 1,
										"outlettype" : [ "" ],
										"id" : "obj-41"
									}

								}
, 								{
									"box" : 									{
										"maxclass" : "newobj",
										"text" : "/",
										"patching_rect" : [ 34.286024413108848, 79.097342785596936, 29.5, 22.0 ],
										"numinlets" : 2,
										"numoutlets" : 1,
										"outlettype" : [ "" ],
										"id" : "obj-37"
									}

								}
, 								{
									"box" : 									{
										"maxclass" : "newobj",
										"text" : "samplerate",
										"patching_rect" : [ 34.286024413108848, 28.743428827524269, 68.0, 22.0 ],
										"numinlets" : 0,
										"numoutlets" : 1,
										"outlettype" : [ "" ],
										"id" : "obj-36"
									}

								}
, 								{
									"box" : 									{
										"maxclass" : "newobj",
										"text" : "latch",
										"patching_rect" : [ 113.312866419553757, 208.644561449289426, 34.0, 22.0 ],
										"numinlets" : 2,
										"numoutlets" : 1,
										"outlettype" : [ "" ],
										"id" : "obj-22"
									}

								}
, 								{
									"box" : 									{
										"maxclass" : "newobj",
										"text" : "scale -1 1 0 noiseamt",
										"patching_rect" : [ 113.312866419553757, 133.922340790033417, 123.0, 22.0 ],
										"numinlets" : 2,
										"numoutlets" : 1,
										"outlettype" : [ "" ],
										"id" : "obj-21"
									}

								}
, 								{
									"box" : 									{
										"maxclass" : "newobj",
										"text" : "noise",
										"patching_rect" : [ 113.312866419553757, 79.097342785596936, 37.0, 22.0 ],
										"numinlets" : 0,
										"numoutlets" : 1,
										"outlettype" : [ "" ],
										"id" : "obj-20"
									}

								}
, 								{
									"box" : 									{
										"maxclass" : "newobj",
										"text" : "+",
										"patching_rect" : [ 34.286024413108848, 277.416051443815263, 49.500000000000014, 22.0 ],
										"numinlets" : 2,
										"numoutlets" : 1,
										"outlettype" : [ "" ],
										"id" : "obj-19"
									}

								}
, 								{
									"box" : 									{
										"maxclass" : "newobj",
										"text" : "buffer alex",
										"patching_rect" : [ 113.312866419553757, 28.743428827524269, 64.0, 22.0 ],
										"numinlets" : 0,
										"numoutlets" : 2,
										"outlettype" : [ "", "" ],
										"id" : "obj-16"
									}

								}
, 								{
									"box" : 									{
										"maxclass" : "newobj",
										"text" : "sample alex",
										"patching_rect" : [ 189.390602208375981, 589.717330176830274, 73.0, 22.0 ],
										"numinlets" : 2,
										"numoutlets" : 2,
										"outlettype" : [ "", "" ],
										"id" : "obj-13"
									}

								}
, 								{
									"box" : 									{
										"maxclass" : "newobj",
										"text" : "param size 1",
										"patching_rect" : [ 521.552592524290048, 614.949526746273023, 77.0, 22.0 ],
										"numinlets" : 0,
										"numoutlets" : 1,
										"outlettype" : [ "" ],
										"id" : "obj-10"
									}

								}
, 								{
									"box" : 									{
										"maxclass" : "newobj",
										"text" : "param lforange 0.5",
										"patching_rect" : [ 521.552592524290048, 574.81337059974669, 109.0, 22.0 ],
										"numinlets" : 0,
										"numoutlets" : 1,
										"outlettype" : [ "" ],
										"id" : "obj-9"
									}

								}
, 								{
									"box" : 									{
										"maxclass" : "newobj",
										"text" : "wrap",
										"patching_rect" : [ 189.390602208375981, 507.147548067569744, 54.245791785716989, 22.0 ],
										"numinlets" : 3,
										"numoutlets" : 1,
										"outlettype" : [ "" ],
										"id" : "obj-8"
									}

								}
, 								{
									"box" : 									{
										"maxclass" : "newobj",
										"text" : "in 1",
										"patching_rect" : [ 128.312866419553757, 164.331696192026243, 28.0, 22.0 ],
										"numinlets" : 0,
										"numoutlets" : 1,
										"outlettype" : [ "" ],
										"id" : "obj-5"
									}

								}
, 								{
									"box" : 									{
										"maxclass" : "newobj",
										"text" : "out 1",
										"patching_rect" : [ 189.390602208375981, 695.630130290985107, 35.0, 22.0 ],
										"numinlets" : 1,
										"numoutlets" : 0,
										"id" : "obj-4"
									}

								}
 ],
							"lines" : [ 								{
									"patchline" : 									{
										"source" : [ "obj-46", 0 ],
										"destination" : [ "obj-2", 0 ],
										"order" : 1
									}

								}
, 								{
									"patchline" : 									{
										"source" : [ "obj-44", 0 ],
										"destination" : [ "obj-46", 0 ]
									}

								}
, 								{
									"patchline" : 									{
										"source" : [ "obj-46", 0 ],
										"destination" : [ "obj-45", 0 ],
										"order" : 0
									}

								}
, 								{
									"patchline" : 									{
										"source" : [ "obj-6", 0 ],
										"destination" : [ "obj-8", 2 ]
									}

								}
, 								{
									"patchline" : 									{
										"source" : [ "obj-7", 0 ],
										"destination" : [ "obj-6", 1 ]
									}

								}
, 								{
									"patchline" : 									{
										"source" : [ "obj-45", 0 ],
										"destination" : [ "obj-6", 0 ]
									}

								}
, 								{
									"patchline" : 									{
										"source" : [ "obj-2", 0 ],
										"destination" : [ "obj-8", 1 ]
									}

								}
, 								{
									"patchline" : 									{
										"source" : [ "obj-3", 0 ],
										"destination" : [ "obj-2", 1 ]
									}

								}
, 								{
									"patchline" : 									{
										"source" : [ "obj-13", 0 ],
										"destination" : [ "obj-4", 0 ]
									}

								}
, 								{
									"patchline" : 									{
										"source" : [ "obj-16", 0 ],
										"destination" : [ "obj-37", 1 ]
									}

								}
, 								{
									"patchline" : 									{
										"source" : [ "obj-19", 0 ],
										"destination" : [ "obj-8", 0 ]
									}

								}
, 								{
									"patchline" : 									{
										"source" : [ "obj-20", 0 ],
										"destination" : [ "obj-21", 0 ]
									}

								}
, 								{
									"patchline" : 									{
										"source" : [ "obj-21", 0 ],
										"destination" : [ "obj-22", 0 ]
									}

								}
, 								{
									"patchline" : 									{
										"source" : [ "obj-22", 0 ],
										"destination" : [ "obj-19", 1 ]
									}

								}
, 								{
									"patchline" : 									{
										"source" : [ "obj-36", 0 ],
										"destination" : [ "obj-37", 0 ]
									}

								}
, 								{
									"patchline" : 									{
										"source" : [ "obj-37", 0 ],
										"destination" : [ "obj-41", 0 ]
									}

								}
, 								{
									"patchline" : 									{
										"source" : [ "obj-41", 0 ],
										"destination" : [ "obj-19", 0 ]
									}

								}
, 								{
									"patchline" : 									{
										"source" : [ "obj-47", 0 ],
										"destination" : [ "obj-13", 0 ]
									}

								}
, 								{
									"patchline" : 									{
										"source" : [ "obj-48", 0 ],
										"destination" : [ "obj-44", 0 ]
									}

								}
, 								{
									"patchline" : 									{
										"source" : [ "obj-5", 0 ],
										"destination" : [ "obj-22", 1 ]
									}

								}
, 								{
									"patchline" : 									{
										"source" : [ "obj-8", 0 ],
										"destination" : [ "obj-47", 0 ]
									}

								}
 ],
							"default_bgcolor" : [ 0.149019607843137, 0.141176470588235, 0.141176470588235, 1.0 ],
							"accentcolor" : [ 0.149019607843137, 0.141176470588235, 0.141176470588235, 1.0 ],
							"textcolor" : [ 1.0, 1.0, 1.0, 1.0 ],
							"bgcolor" : [ 0.074509803921569, 0.066666666666667, 0.066666666666667, 1.0 ],
							"editing_bgcolor" : [ 0.074509803921569, 0.066666666666667, 0.066666666666667, 0.741176470588235 ]
						}

					}
,
					"id" : "obj-4",
					"maxclass" : "newobj",
					"numinlets" : 1,
					"numoutlets" : 1,
					"outlettype" : [ "multichannelsignal" ],
					"patching_rect" : [ 222.942943360805515, 499.636593821048734, 200.0, 23.0 ],
					"text" : "mc.gen~ @t granning @chans 32",
					"wrapper_uniquekey" : "u597001129"
				}

			}
, 			{
				"box" : 				{
					"id" : "obj-1",
					"maxclass" : "newobj",
					"numinlets" : 1,
					"numoutlets" : 1,
					"outlettype" : [ "signal" ],
					"patching_rect" : [ 221.748660743236542, 144.504811851978303, 48.0, 23.0 ],
					"text" : "click~"
				}

			}
 ],
		"lines" : [ 			{
				"patchline" : 				{
					"destination" : [ "obj-4", 0 ],
					"source" : [ "obj-1", 0 ]
				}

			}
, 			{
				"patchline" : 				{
					"destination" : [ "obj-103", 0 ],
					"source" : [ "obj-107", 0 ]
				}

			}
, 			{
				"patchline" : 				{
					"destination" : [ "obj-35", 2 ],
					"source" : [ "obj-108", 0 ]
				}

			}
, 			{
				"patchline" : 				{
					"destination" : [ "obj-108", 0 ],
					"source" : [ "obj-110", 0 ]
				}

			}
, 			{
				"patchline" : 				{
					"destination" : [ "obj-71", 0 ],
					"source" : [ "obj-112", 0 ]
				}

			}
, 			{
				"patchline" : 				{
					"destination" : [ "obj-62", 0 ],
					"source" : [ "obj-113", 0 ]
				}

			}
, 			{
				"patchline" : 				{
					"destination" : [ "obj-21", 0 ],
					"order" : 1,
					"source" : [ "obj-114", 0 ]
				}

			}
, 			{
				"patchline" : 				{
					"destination" : [ "obj-73", 0 ],
					"order" : 0,
					"source" : [ "obj-114", 0 ]
				}

			}
, 			{
				"patchline" : 				{
					"destination" : [ "obj-20", 0 ],
					"order" : 1,
					"source" : [ "obj-115", 0 ]
				}

			}
, 			{
				"patchline" : 				{
					"destination" : [ "obj-94", 0 ],
					"order" : 0,
					"source" : [ "obj-115", 0 ]
				}

			}
, 			{
				"patchline" : 				{
					"destination" : [ "obj-6", 0 ],
					"source" : [ "obj-12", 0 ]
				}

			}
, 			{
				"patchline" : 				{
					"destination" : [ "obj-14", 0 ],
					"source" : [ "obj-13", 0 ]
				}

			}
, 			{
				"patchline" : 				{
					"destination" : [ "obj-6", 1 ],
					"midpoints" : [ 314.670059645175911, 213.905290246009827, 295.525260150432587, 213.905290246009827, 295.525260150432587, 96.98550546169281, 280.248660743236542, 96.98550546169281 ],
					"source" : [ "obj-14", 0 ]
				}

			}
, 			{
				"patchline" : 				{
					"destination" : [ "obj-19", 0 ],
					"source" : [ "obj-15", 0 ]
				}

			}
, 			{
				"patchline" : 				{
					"destination" : [ "obj-14", 1 ],
					"source" : [ "obj-16", 0 ]
				}

			}
, 			{
				"patchline" : 				{
					"destination" : [ "obj-16", 0 ],
					"source" : [ "obj-17", 0 ]
				}

			}
, 			{
				"patchline" : 				{
					"destination" : [ "obj-12", 0 ],
					"source" : [ "obj-2", 0 ]
				}

			}
, 			{
				"patchline" : 				{
					"destination" : [ "obj-4", 0 ],
					"source" : [ "obj-20", 0 ]
				}

			}
, 			{
				"patchline" : 				{
					"destination" : [ "obj-4", 0 ],
					"source" : [ "obj-21", 0 ]
				}

			}
, 			{
				"patchline" : 				{
					"destination" : [ "obj-27", 0 ],
					"source" : [ "obj-22", 0 ]
				}

			}
, 			{
				"patchline" : 				{
					"destination" : [ "obj-3", 1 ],
					"source" : [ "obj-27", 0 ]
				}

			}
, 			{
				"patchline" : 				{
					"destination" : [ "obj-15", 0 ],
					"order" : 0,
					"source" : [ "obj-3", 0 ]
				}

			}
, 			{
				"patchline" : 				{
					"destination" : [ "obj-8", 0 ],
					"order" : 1,
					"source" : [ "obj-3", 0 ]
				}

			}
, 			{
				"patchline" : 				{
					"destination" : [ "obj-33", 0 ],
					"source" : [ "obj-32", 0 ]
				}

			}
, 			{
				"patchline" : 				{
					"destination" : [ "obj-30", 0 ],
					"source" : [ "obj-33", 0 ]
				}

			}
, 			{
				"patchline" : 				{
					"destination" : [ "obj-32", 0 ],
					"source" : [ "obj-39", 0 ]
				}

			}
, 			{
				"patchline" : 				{
					"destination" : [ "obj-3", 0 ],
					"source" : [ "obj-4", 0 ]
				}

			}
, 			{
				"patchline" : 				{
					"destination" : [ "obj-44", 0 ],
					"source" : [ "obj-43", 0 ]
				}

			}
, 			{
				"patchline" : 				{
					"destination" : [ "obj-106", 0 ],
					"order" : 1,
					"source" : [ "obj-44", 0 ]
				}

			}
, 			{
				"patchline" : 				{
					"destination" : [ "obj-107", 0 ],
					"order" : 0,
					"source" : [ "obj-44", 0 ]
				}

			}
, 			{
				"patchline" : 				{
					"destination" : [ "obj-114", 0 ],
					"source" : [ "obj-45", 0 ]
				}

			}
, 			{
				"patchline" : 				{
					"destination" : [ "obj-115", 0 ],
					"source" : [ "obj-46", 0 ]
				}

			}
, 			{
				"patchline" : 				{
					"destination" : [ "obj-33", 0 ],
					"source" : [ "obj-47", 0 ]
				}

			}
, 			{
				"patchline" : 				{
					"destination" : [ "obj-56", 1 ],
					"source" : [ "obj-49", 0 ]
				}

			}
, 			{
				"patchline" : 				{
					"destination" : [ "obj-57", 1 ],
					"order" : 1,
					"source" : [ "obj-49", 6 ]
				}

			}
, 			{
				"patchline" : 				{
					"destination" : [ "obj-76", 0 ],
					"order" : 0,
					"source" : [ "obj-49", 6 ]
				}

			}
, 			{
				"patchline" : 				{
					"destination" : [ "obj-49", 0 ],
					"source" : [ "obj-50", 0 ]
				}

			}
, 			{
				"patchline" : 				{
					"destination" : [ "obj-50", 0 ],
					"source" : [ "obj-54", 0 ]
				}

			}
, 			{
				"patchline" : 				{
					"destination" : [ "obj-1", 0 ],
					"order" : 1,
					"source" : [ "obj-6", 0 ]
				}

			}
, 			{
				"patchline" : 				{
					"destination" : [ "obj-13", 0 ],
					"midpoints" : [ 231.248660743236542, 126.98550546169281, 300.98931223154068, 126.98550546169281, 300.98931223154068, 126.364590883255005, 314.670059645175911, 126.364590883255005 ],
					"order" : 0,
					"source" : [ "obj-6", 0 ]
				}

			}
, 			{
				"patchline" : 				{
					"destination" : [ "obj-4", 0 ],
					"source" : [ "obj-62", 0 ]
				}

			}
, 			{
				"patchline" : 				{
					"destination" : [ "obj-113", 0 ],
					"source" : [ "obj-64", 0 ]
				}

			}
, 			{
				"patchline" : 				{
					"destination" : [ "obj-112", 0 ],
					"source" : [ "obj-69", 0 ]
				}

			}
, 			{
				"patchline" : 				{
					"destination" : [ "obj-4", 0 ],
					"source" : [ "obj-71", 0 ]
				}

			}
, 			{
				"patchline" : 				{
					"destination" : [ "obj-78", 0 ],
					"source" : [ "obj-74", 0 ]
				}

			}
, 			{
				"patchline" : 				{
					"destination" : [ "obj-78", 1 ],
					"source" : [ "obj-77", 0 ]
				}

			}
, 			{
				"patchline" : 				{
					"destination" : [ "obj-35", 3 ],
					"order" : 1,
					"source" : [ "obj-78", 0 ]
				}

			}
, 			{
				"patchline" : 				{
					"destination" : [ "obj-93", 0 ],
					"order" : 0,
					"source" : [ "obj-78", 0 ]
				}

			}
 ],
		"parameters" : 		{
			"obj-112" : [ "live.dial", "lfospd", 0 ],
			"obj-113" : [ "live.dial[1]", "noise", 0 ],
			"obj-114" : [ "live.dial[2]", "size", 0 ],
			"obj-115" : [ "live.dial[3]", "lforange", 0 ],
			"obj-32" : [ "live.drop", "live.drop", 0 ],
			"parameterbanks" : 			{
				"0" : 				{
					"index" : 0,
					"name" : "",
					"parameters" : [ "-", "-", "-", "-", "-", "-", "-", "-" ]
				}

			}
,
			"inherited_shortname" : 1
		}
,
		"dependency_cache" : [  ],
		"autosave" : 0,
		"default_bgcolor" : [ 0.149019607843137, 0.141176470588235, 0.141176470588235, 1.0 ],
		"accentcolor" : [ 0.149019607843137, 0.141176470588235, 0.141176470588235, 1.0 ],
		"textcolor" : [ 1.0, 1.0, 1.0, 1.0 ],
		"bgcolor" : [ 0.074509803921569, 0.066666666666667, 0.066666666666667, 1.0 ],
		"editing_bgcolor" : [ 0.074509803921569, 0.066666666666667, 0.066666666666667, 0.741176470588235 ]
	}

}
